<svg width="143" height="54" viewBox="0 0 143 54" fill="none" xmlns="http://www.w3.org/2000/svg">
<path d="M0.93457 53.5H15.6568V0.5H0.93457V53.5Z" fill="#D3D3D3"/>
<path d="M47.0814 0.5L43.7865 25.2583L41.7392 11.792C41.1457 7.47861 40.5763 3.7146 40.0312 0.5H21.5457V53.5H34.0349L34.0834 18.5018L39.3407 53.5H48.2322L53.2231 17.7303L53.2594 53.5H65.7123V0.5H47.0814Z" fill="#D3D3D3"/>
<path d="M71.6013 53.5V0.5H94.5814C99.7777 0.5 103.99 4.68095 103.99 9.85333V44.1467C103.99 49.3124 99.7845 53.5 94.5814 53.5H71.6013ZM88.774 10.0386C88.1901 9.72298 87.0729 9.57102 85.448 9.57102V44.3472C87.5934 44.3472 88.9137 43.9614 89.4088 43.1548C89.9039 42.3599 90.1578 40.2091 90.1578 36.6789V16.1288C90.1578 13.7325 90.0689 12.2011 89.9039 11.5232C89.7389 10.8452 89.3707 10.3542 88.774 10.0386Z" fill="#D3D3D3"/>
<path d="M131.756 13.7702H132.697C137.983 13.7702 142.268 17.9095 142.268 23.0099V44.2603C142.268 49.3632 137.984 53.5 132.697 53.5H131.756C128.522 53.5 125.662 51.9502 123.93 49.5788L123.082 52.8192H109.879V0.5H123.966V17.5205C125.787 15.2521 128.592 13.7702 131.756 13.7702ZM128.74 39.6146V27.0562C128.74 24.9811 128.607 23.6193 128.329 22.9925C128.052 22.3657 126.944 21.9632 126.167 21.9632C125.39 21.9632 124.191 22.2903 123.958 22.8415V27.0562V40.0168V44.0998C124.225 44.705 125.368 45.0418 126.167 45.0418C126.966 45.0418 128.129 44.7158 128.374 44.0998C128.618 43.4838 128.74 41.9815 128.74 39.6146Z" fill="#D3D3D3"/>
</svg>
