<?xml version="1.0" encoding="utf-8"?>
<!-- Generator: Adobe Illustrator 17.0.0, SVG Export Plug-In . SVG Version: 6.00 Build 0)  -->
<!DOCTYPE svg PUBLIC "-//W3C//DTD SVG 1.1//EN" "http://www.w3.org/Graphics/SVG/1.1/DTD/svg11.dtd">
<svg version="1.1" id="Layer_1" xmlns="http://www.w3.org/2000/svg" xmlns:xlink="http://www.w3.org/1999/xlink" x="0px" y="0px"
			width="36px" height="15.15px" viewBox="0 0 36 15.15"  xml:space="preserve">

	<rect width="100%" height="100%" fill="#EF3B39" rx="2" /> 
	<g>
		<svg version="1.1" id="Layer_1" xmlns="http://www.w3.org/2000/svg" xmlns:xlink="http://www.w3.org/1999/xlink" x="2px" y="4px"
			width="32px" height="7.15px" viewBox="0 0 32 7.15" enable-background="new 0 0 32 7.15" xml:space="preserve">
			
			<g id="icon-logo" fill="#fff">
				<path d="M7.869,1.784L7.869,1.784c-0.658,0-0.658,0.274-0.658,0.364v2.959c0,0.09,0,0.364,0.658,0.364
					c0.667,0,0.667-0.274,0.667-0.364V2.148C8.536,2.058,8.536,1.784,7.869,1.784 M7.873,7.15c-0.845,0-1.499-0.179-1.942-0.53
					C5.528,6.3,5.315,5.853,5.315,5.327v-3.4c0-0.526,0.213-0.973,0.616-1.293c0.443-0.352,1.097-0.53,1.942-0.53
					c0.845,0,1.499,0.178,1.942,0.53c0.403,0.32,0.615,0.767,0.615,1.293v3.4c0,0.526-0.213,0.973-0.615,1.293
					C9.372,6.971,8.718,7.15,7.873,7.15z"/>
				<path d="M20.762,0.186H16.31c-0.182,0-0.253,0.081-0.253,0.263v1.149c0,0.183,0.071,0.263,0.253,0.263h1.278v4.945
					c0,0.182,0.071,0.263,0.253,0.263h1.389c0.182,0,0.253-0.081,0.253-0.263V1.861h1.278c0.182,0,0.253-0.08,0.253-0.263V0.449
					C21.015,0.267,20.944,0.186,20.762,0.186"/>
				<path d="M14.04,2.655L14.04,2.655c0,0.089,0,0.363-0.666,0.363h-0.583V1.861h0.583c0.666,0,0.666,0.274,0.666,0.363
					V2.655z M16.054,6.806l-1.046-2.444c0.589-0.315,0.909-0.833,0.909-1.487V2.004c0-0.526-0.211-0.971-0.609-1.289
					c-0.439-0.351-1.09-0.529-1.934-0.529h-2.217c-0.182,0-0.253,0.081-0.253,0.263v6.357c0,0.182,0.071,0.263,0.253,0.263h1.38
					c0.182,0,0.253-0.081,0.253-0.263V4.694h0.423l0.887,2.111c0.077,0.182,0.182,0.263,0.364,0.263h1.444
					C16.094,7.069,16.132,6.988,16.054,6.806z"/>
				<path d="M4.403,0.715c-0.44-0.351-1.091-0.529-1.934-0.529H0.253C0.071,0.186,0,0.267,0,0.449v6.357
					c0,0.182,0.071,0.263,0.253,0.263h1.38c0.182,0,0.253-0.081,0.253-0.263V1.861h0.583c0.666,0,0.666,0.274,0.666,0.363V2.83
					c0,0.235-0.224,0.354-0.666,0.354h-0.16v1.676h0.16c0.844,0,1.494-0.179,1.934-0.529c0.398-0.318,0.609-0.764,0.609-1.29V2.005
					C5.013,1.479,4.802,1.033,4.403,0.715"/>
				<path d="M21.92,6.823c0,0.183-0.061,0.253-0.242,0.253h-0.861c-0.182,0-0.253-0.071-0.253-0.253V6.004
					c0-0.182,0.071-0.253,0.253-0.253h0.861c0.182,0,0.242,0.071,0.242,0.253V6.823z"/>
				<path d="M24.226,2.48c0.293-0.223,0.81-0.527,1.589-0.527c0.931,0,1.468,0.567,1.468,1.357v3.502
					c0,0.182-0.071,0.263-0.253,0.263h-0.82c-0.182,0-0.263-0.081-0.263-0.263V3.644c0-0.365-0.112-0.537-0.547-0.537
					c-0.506,0-0.961,0.293-1.174,0.455v3.249c0,0.182-0.061,0.263-0.233,0.263h-0.84c-0.182,0-0.253-0.081-0.253-0.263V0.263
					C22.901,0.081,22.971,0,23.154,0h0.84c0.172,0,0.233,0.081,0.233,0.263V2.48z"/>
				<path d="M30.704,6.515c-0.263,0.233-0.749,0.557-1.559,0.557c-0.921,0-1.457-0.567-1.457-1.357V2.203
					c0-0.183,0.071-0.253,0.243-0.253h0.83c0.172,0,0.253,0.071,0.253,0.253v3.178c0,0.365,0.121,0.537,0.546,0.537
					c0.496,0,0.911-0.283,1.114-0.445V2.203c0-0.183,0.061-0.253,0.243-0.253h0.84C31.929,1.95,32,2.021,32,2.203v4.534
					c0,0.183-0.071,0.253-0.243,0.253h-0.779c-0.182,0-0.233-0.071-0.253-0.253L30.704,6.515z"/>
			</g>
		</svg>

	</g>
</svg>
