<svg width="238" height="54" viewBox="0 0 238 54" fill="none" xmlns="http://www.w3.org/2000/svg">
<path d="M59.0611 13.7241C54.1837 13.7241 54.1837 15.7552 54.1837 16.4223V38.3562C54.1837 39.0233 54.1837 41.0544 59.0611 41.0544C64.0053 41.0544 64.0053 39.0233 64.0053 38.3562V16.4223C64.0053 15.7552 64.0053 13.7241 59.0611 13.7241ZM59.0908 53.5001C52.8272 53.5001 47.9793 52.1732 44.6955 49.5714C41.7083 47.1994 40.1294 43.886 40.1294 39.9869V14.7841C40.1294 10.8851 41.7083 7.5717 44.6955 5.19967C47.9793 2.59044 52.8272 1.271 59.0908 1.271C65.3544 1.271 70.2023 2.59044 73.486 5.19967C76.4733 7.5717 78.0448 10.8851 78.0448 14.7841V39.9869C78.0448 43.886 76.4659 47.1994 73.486 49.5714C70.2023 52.1732 65.3544 53.5001 59.0908 53.5001Z" fill="#D3D3D3"/>
<path d="M154.632 1.87857H121.631C120.282 1.87857 119.756 2.47899 119.756 3.82808V12.3451C119.756 13.7016 120.282 14.2947 121.631 14.2947H131.105V50.9499C131.105 52.299 131.631 52.8994 132.98 52.8994H143.276C144.625 52.8994 145.151 52.299 145.151 50.9499V14.2947H154.625C155.974 14.2947 156.5 13.7016 156.5 12.3451V3.82808C156.507 2.47899 155.981 1.87857 154.632 1.87857Z" fill="#D3D3D3"/>
<path d="M104.805 20.1802C104.805 20.84 104.805 22.871 99.8687 22.871H95.5471V14.2947H99.8687C104.805 14.2947 104.805 16.3257 104.805 16.9854V20.1802ZM119.734 50.9499L111.981 32.8335C116.347 30.4986 118.719 26.6588 118.719 21.811V15.3547C118.719 11.4556 117.155 8.15703 114.205 5.79983C110.95 3.19801 106.125 1.87857 99.8687 1.87857H83.4349C82.0859 1.87857 81.5596 2.47899 81.5596 3.82808V50.9499C81.5596 52.299 82.0859 52.8994 83.4349 52.8994H93.6643C95.0134 52.8994 95.5397 52.299 95.5397 50.9499V35.2945H98.6752L105.25 50.9425C105.821 52.2916 106.599 52.892 107.948 52.892H118.652C120.031 52.8994 120.313 52.299 119.734 50.9499Z" fill="#D3D3D3"/>
<path d="M33.3696 5.79983C30.108 3.19801 25.2824 1.87857 19.0336 1.87857H2.60732C1.25823 1.87857 0.731934 2.47899 0.731934 3.82808V50.9499C0.731934 52.299 1.25823 52.8994 2.60732 52.8994H12.8367C14.1858 52.8994 14.7121 52.299 14.7121 50.9499V14.2947H19.0336C23.9704 14.2947 23.9704 16.3257 23.9704 16.9854V21.4774C23.9704 23.2194 22.31 24.1015 19.0336 24.1015H17.8476V36.525H19.0336C25.2898 36.525 30.108 35.1982 33.3696 32.6037C36.3198 30.2465 37.8838 26.9405 37.8838 23.0415V15.3621C37.8912 11.463 36.3272 8.15703 33.3696 5.79983Z" fill="#D3D3D3"/>
<path d="M163.216 51.0758C163.216 52.4323 162.763 52.9512 161.422 52.9512H155.039C153.69 52.9512 153.164 52.4249 153.164 51.0758V45.0049C153.164 43.6558 153.69 43.1295 155.039 43.1295H161.422C162.771 43.1295 163.216 43.6558 163.216 45.0049V51.0758Z" fill="#D3D3D3"/>
<path d="M180.31 18.8832C182.481 17.2302 186.314 14.9768 192.088 14.9768C198.989 14.9768 202.97 19.1797 202.97 25.0357V50.9945C202.97 52.3436 202.444 52.9441 201.094 52.9441H195.016C193.667 52.9441 193.067 52.3436 193.067 50.9945V27.5115C193.067 24.8059 192.236 23.5309 189.012 23.5309C185.261 23.5309 181.888 25.7028 180.31 26.9036V50.9871C180.31 52.3362 179.857 52.9366 178.582 52.9366H172.356C171.007 52.9366 170.48 52.3362 170.48 50.9871V2.44951C170.488 1.10042 171.007 0.5 172.363 0.5H178.59C179.865 0.5 180.317 1.10042 180.317 2.44951V18.8832H180.31Z" fill="#D3D3D3"/>
<path d="M228.328 48.7931C226.379 50.5202 222.776 52.9219 216.772 52.9219C209.945 52.9219 205.972 48.7189 205.972 42.863V16.83C205.972 15.4735 206.498 14.9546 207.773 14.9546H213.925C215.2 14.9546 215.801 15.4809 215.801 16.83V40.3872C215.801 43.0928 216.698 44.3678 219.848 44.3678C223.525 44.3678 226.601 42.27 228.106 41.0691V16.83C228.106 15.4735 228.558 14.9546 229.907 14.9546H236.133C237.408 14.9546 237.935 15.4809 237.935 16.83V50.4387C237.935 51.7952 237.408 52.314 236.133 52.314H230.359C229.01 52.314 228.632 51.7878 228.484 50.4387L228.328 48.7931Z" fill="#D3D3D3"/>
</svg>
