<svg width="201" height="201" viewBox="0 0 201 201" fill="none" xmlns="http://www.w3.org/2000/svg">
<path fill-rule="evenodd" clip-rule="evenodd" d="M58.4861 26.2086C58.4861 12.2863 69.7724 1 83.6947 1C97.617 1 108.903 12.2863 108.903 26.2086V35.6H139.549C146.646 35.6 152.4 41.3538 152.4 48.4514V80.0858H161.791C175.714 80.0858 187 91.372 187 105.294C187 119.217 175.714 130.503 161.791 130.503H152.4V161.149C152.4 168.246 146.646 174 139.549 174H108.903V164.609C108.903 150.686 97.617 139.4 83.6947 139.4C69.7724 139.4 58.4861 150.686 58.4861 164.609V174H26.8514C19.7538 174 14 168.246 14 161.149V130.503H23.3914C37.3137 130.503 48.6 119.217 48.6 105.294C48.6 91.372 37.3137 80.0858 23.3914 80.0858H14L14 130.503V48.4514C14 41.3538 19.7538 35.6 26.8514 35.6H58.4861V26.2086Z" fill="white"/>
</svg>
