<svg width="201" height="201" viewBox="0 0 201 201" fill="none" xmlns="http://www.w3.org/2000/svg">
<g clip-path="url(#clip0)">
<rect y="34" width="200" height="134" rx="23" fill="#F0F0F0"/>
<path d="M90.8435 134H76.8945L82.0361 104.293H55.1379L49.9487 134H35.9998L48.0444 64.6836H61.9934L57.0898 92.772H84.0356L88.8916 64.6836H102.841L90.8435 134ZM103.317 134L115.361 64.6836L135.261 64.7312C139.927 64.8264 144.116 65.8896 147.83 67.9209C151.575 69.9204 154.606 72.8086 156.923 76.5854C159.24 80.3623 160.636 84.6152 161.112 89.3442C161.366 92.1055 161.334 94.9302 161.017 97.8184L160.684 100.342C159.287 110.498 155.288 118.655 148.687 124.812C142.117 130.937 134.135 134 124.74 134H103.317ZM127.311 76.2522L119.265 122.527L125.073 122.574C131.484 122.574 136.626 120.226 140.498 115.528C144.402 110.831 146.639 103.738 147.211 94.2478L147.306 92.7244C147.401 87.4875 146.401 83.4727 144.307 80.6797C142.212 77.8867 139.086 76.4268 134.928 76.2998L127.311 76.2522Z" fill="black"/>
</g>
<defs>
<clipPath id="clip0">
<rect width="200" height="200" fill="white" transform="translate(0.5 0.5)"/>
</clipPath>
</defs>
</svg>
